# xmcd
#
# Track frame offsets:
#	150
#	14687
#	29917
#	48737
#	58899
#	71840
#	83984
#	103173
#	116039
#	127321
#	144762
#	161721
#
# Disc length: 2459 seconds
#
# Revision: 5
# Processed by: cddbd v1.4PL0 Copyright (c) Steve Scherf et al.
# Submitted via: dBpowerAMP V4.0
#
DISCID=c009990c
DTITLE=Fleetwood Mac - The Best Of Fleetwood Mac
DYEAR=1996
DGENRE=Rock
TTITLE0=Albatross
TTITLE1=No Place To Go
TTITLE2=Merry Go Round
TTITLE3=Long Grey mare
TTITLE4=Black Magic Woman
TTITLE5=Rambling Pony
TTITLE6=Watch Out!
TTITLE7=My Baby's Good To Me
TTITLE8=The World Keep On Turning
TTITLE9=Need Your Love So Bad
TTITLE10=Doctor Brown
TTITLE11=Love That Burns
EXTD=
EXTT0=
EXTT1=
EXTT2=
EXTT3=
EXTT4=
EXTT5=
EXTT6=
EXTT7=
EXTT8=
EXTT9=
EXTT10=
EXTT11=
PLAYORDER=
